<svg width="30" height="30" viewBox="0 0 30 30" xmlns="http://www.w3.org/2000/svg"><title>facebook-official</title><path d="M28.34 0c.456 0 .846.163 1.172.488.325.326.488.716.488 1.172v26.68c0 .456-.163.846-.488 1.172A1.598 1.598 0 0 1 28.34 30h-7.637V18.379h3.887l.586-4.531h-4.473v-2.891c0-.73.153-1.276.46-1.64.305-.365.9-.547 1.786-.547l2.383-.02V4.707c-.82-.117-1.98-.176-3.477-.176-1.77 0-3.186.521-4.248 1.563-1.06 1.041-1.591 2.513-1.591 4.414v3.34h-3.907v4.53h3.907V30H1.66c-.456 0-.846-.163-1.172-.488A1.598 1.598 0 0 1 0 28.34V1.66C0 1.204.163.814.488.488A1.598 1.598 0 0 1 1.66 0h26.68z" fill="#FFF" fill-rule="evenodd"/></svg>