<svg width="224" height="62" viewBox="0 0 224 62" xmlns="http://www.w3.org/2000/svg"><title>Logotype</title><g fill="none" fill-rule="evenodd"><g fill="#000"><path d="M21.542 35.073c3.397-3.801 7.663-6.349 12.363-7.084l1.133 21.91a12.547 12.547 0 0 0-3.342.403L21.542 35.073zm-1.807 2.254c-3.032 4.215-5.13 9.56-5.871 15.49l9.963 2.914c1.464-1.846 3.158-3.316 5.041-4.32l-9.133-14.084zm31.022-3.457c-3.894-3.827-8.758-6.1-14.034-6.1l-.115.001 1.455 22.53c1.219.307 2.419.785 3.585 1.417l9.11-17.848zm1.97 2.17c3.646 4.492 6.153 10.501 6.91 17.24l-11.903 3.482a24.205 24.205 0 0 0-3.569-3.402l8.563-17.32zm7.123 20.1a39.022 39.022 0 0 1-.225 5.86h-8.254a33.918 33.918 0 0 0-1.707-2.738L59.85 56.14zm-46.234-.465A38.952 38.952 0 0 0 13.821 62h6.465a26.969 26.969 0 0 1 1.807-3.727l-8.477-2.598zM9.341 49.908c-.825.688-1.933 1.506-3.076 2.044l-.598-9.25a101.06 101.06 0 0 1 3.188-2.196l.486 9.402zm2.702-4.341l4.11-9.616s-1.978 1.153-4.551 2.78l.441 6.836zm-8.69 6.81c-1.61-.599-2.756-2.834-3.27-3.73-.432-.754.86-2.21 2.876-3.874l.394 7.605zM80.652 27.966c-.663-.555-1.425-1.178-2.282-1.898l-.536-.451-13.422 14.977a27.71 27.71 0 0 0 4.359.345l11.881-12.973zm2.049 1.862c1.868 2 1.5 3.358-1.526 6.963-1.665 1.985-4.686 3.254-8.132 3.815l9.658-10.778zm-6.978-5.998a112.235 112.235 0 0 0-2.877-2.352L57.733 38.342c.994.59 2.128 1.08 3.352 1.47L75.723 23.83zm-5.063-3.995c-4.57-3.258-9.265-5.354-12.078-2.002a26.245 26.245 0 0 0-2.104 2.897 5.06 5.06 0 1 1-3.255 9.422c-.068 2.33.553 4.54 2.187 6.333l15.25-16.65zM57.651 13.697c-.407 1.621-.932 2.946-1.566 3.635l-5.051-7.576.029-.016c.75-.434 1.52-1.47 2.268-2.706l4.32 6.663zm.743-4.206c.457-3.888.393-7.9-.251-9.016-.681-1.18-1.872 1.12-3.26 3.75l3.511 5.266zm-5.013 9.043c-2.108.386-4.126-.3-5.057-1.913-.865-1.497-.57-3.407.588-4.979l4.47 6.892z"/><ellipse cx="54.277" cy="25.403" rx="2.369" ry="2.368"/></g><path d="M106.036 36V23.15h2.725v10.6h5.212V36h-7.937zm10.17 0V23.15h2.724V36h-2.725zm10.915 0h-2.725V25.418h-3.489V23.15h9.703v2.268h-3.489V36zm10.784 0h-2.724V25.418h-3.49V23.15h9.704v2.268h-3.49V36zm5.467 0V23.15h2.725v10.6h5.212V36h-7.937zm17.57 0h-7.401V23.15h7.4v2.233h-4.675v2.821h4.35v2.233h-4.35v3.313h4.675V36zm15.732 0h-9.563v-1.767l6.161-8.833h-5.994v-2.25h9.229v1.758l-6.153 8.842h6.32V36zm9.448 0h-7.4V23.15h7.4v2.233h-4.676v2.821h4.35v2.233h-4.35v3.313h4.676V36zm2.68-12.85h4c1.822 0 3.145.26 3.968.778.823.519 1.235 1.343 1.235 2.474 0 .768-.18 1.398-.54 1.89a2.16 2.16 0 0 1-1.438.888v.088c.815.181 1.402.521 1.763 1.02.36.497.54 1.16.54 1.985 0 1.172-.423 2.086-1.27 2.743-.847.656-1.997.984-3.45.984h-4.807V23.15zm2.725 5.09h1.582c.739 0 1.273-.115 1.604-.344.331-.228.497-.606.497-1.133 0-.492-.18-.846-.54-1.06-.36-.213-.93-.32-1.71-.32h-1.433v2.856zm0 2.161v3.349h1.776c.75 0 1.303-.144 1.66-.43.358-.288.537-.727.537-1.319 0-1.066-.762-1.6-2.285-1.6h-1.688zm12.094-1.547h.879c.861 0 1.497-.143 1.907-.43.41-.287.615-.738.615-1.354 0-.61-.209-1.043-.628-1.3-.419-.258-1.068-.387-1.947-.387h-.826v3.471zm0 2.215V36h-2.725V23.15h3.745c1.746 0 3.038.318 3.876.954.837.636 1.256 1.601 1.256 2.896a3.41 3.41 0 0 1-.624 2.017c-.416.589-1.004 1.05-1.766 1.384a518.963 518.963 0 0 0 3.78 5.599h-3.024l-3.068-4.93h-1.45zM220.646 36l-.932-3.059h-4.685L214.098 36h-2.936l4.535-12.902h3.331L223.581 36h-2.935zm-1.583-5.344a904.648 904.648 0 0 1-1.454-4.702c-.109-.363-.186-.65-.233-.861-.193.75-.747 2.604-1.661 5.563h3.348zM106.641 56h-1.162v-9.994h5.571v1.032h-4.409v3.657h4.143v1.033h-4.143V56zm14.738-5.01c0 1.599-.404 2.857-1.213 3.773-.809.916-1.933 1.374-3.374 1.374-1.472 0-2.607-.45-3.407-1.35-.8-.9-1.2-2.17-1.2-3.811 0-1.627.401-2.889 1.203-3.784.802-.896 1.942-1.343 3.418-1.343 1.436 0 2.557.455 3.363 1.367.807.911 1.21 2.17 1.21 3.773zm-7.963 0c0 1.353.288 2.38.864 3.079.577.7 1.414 1.05 2.512 1.05 1.108 0 1.944-.35 2.51-1.047.564-.697.847-1.725.847-3.083 0-1.344-.281-2.364-.844-3.059-.563-.695-1.396-1.042-2.499-1.042-1.107 0-1.95.35-2.526 1.049-.576.7-.864 1.717-.864 3.052zm17.739-4.984v6.467c0 1.139-.344 2.034-1.032 2.686-.689.652-1.634.978-2.837.978-1.203 0-2.134-.328-2.793-.985-.658-.656-.988-1.558-.988-2.707v-6.44h1.162v6.522c0 .834.228 1.475.684 1.921.456.447 1.126.67 2.01.67.843 0 1.492-.224 1.948-.673.456-.45.684-1.093.684-1.931v-6.508h1.162zM141.607 56h-1.326l-5.462-8.388h-.055c.073.985.11 1.887.11 2.707V56H133.8v-9.994h1.313l5.448 8.353h.055a75.95 75.95 0 0 1-.062-1.186 20.579 20.579 0 0 1-.034-1.432v-5.735h1.087V56zm10.726-5.093c0 1.65-.448 2.911-1.344 3.784-.895.873-2.184 1.309-3.865 1.309h-2.769v-9.994h3.062c1.555 0 2.762.43 3.624 1.292.86.861 1.292 2.064 1.292 3.61zm-1.23.041c0-1.303-.328-2.285-.982-2.946-.654-.66-1.626-.991-2.915-.991h-1.689v7.984h1.415c1.386 0 2.427-.34 3.124-1.022.697-.681 1.046-1.69 1.046-3.025zm9.46 5.052l-1.244-3.179h-4.006L154.083 56h-1.176l3.95-10.035h.978L161.766 56h-1.203zm-1.606-4.225l-1.163-3.096c-.15-.392-.305-.873-.464-1.443-.1.438-.244.919-.431 1.443l-1.176 3.096h3.234zM165.239 56h-1.162v-8.962h-3.165v-1.032h7.492v1.032h-3.165V56zm4.669 0v-9.994h1.162V56h-1.162zm12.578-5.01c0 1.599-.405 2.857-1.214 3.773-.808.916-1.933 1.374-3.373 1.374-1.472 0-2.608-.45-3.408-1.35-.8-.9-1.2-2.17-1.2-3.811 0-1.627.402-2.889 1.204-3.784.802-.896 1.941-1.343 3.418-1.343 1.435 0 2.556.455 3.363 1.367.807.911 1.21 2.17 1.21 3.773zm-7.964 0c0 1.353.288 2.38.865 3.079.576.7 1.414 1.05 2.512 1.05 1.107 0 1.944-.35 2.509-1.047s.847-1.725.847-3.083c0-1.344-.281-2.364-.844-3.059-.563-.695-1.396-1.042-2.498-1.042-1.108 0-1.95.35-2.526 1.049-.577.7-.865 1.717-.865 3.052zM192.521 56h-1.326l-5.462-8.388h-.055c.073.985.11 1.887.11 2.707V56h-1.074v-9.994h1.313l5.448 8.353h.055a75.97 75.97 0 0 1-.062-1.186 20.58 20.58 0 0 1-.034-1.432v-5.735h1.087V56z" fill="#474C55"/></g></svg>