<svg width="84" height="62" viewBox="0 0 84 62" xmlns="http://www.w3.org/2000/svg"><title>Logo</title><g fill="#FFF" fill-rule="evenodd"><path d="M21.542 35.073c3.397-3.801 7.663-6.349 12.363-7.084l1.133 21.91a12.547 12.547 0 0 0-3.342.403L21.542 35.073zm-1.807 2.254c-3.032 4.215-5.13 9.56-5.871 15.49l9.963 2.914c1.464-1.846 3.158-3.316 5.041-4.32l-9.133-14.084zm31.022-3.457c-3.894-3.827-8.758-6.1-14.034-6.1l-.115.001 1.455 22.53c1.219.307 2.419.785 3.585 1.417l9.11-17.848zm1.97 2.17c3.646 4.492 6.153 10.501 6.91 17.24l-11.903 3.482a24.205 24.205 0 0 0-3.569-3.402l8.563-17.32zm7.123 20.1a39.022 39.022 0 0 1-.225 5.86h-8.254a33.918 33.918 0 0 0-1.707-2.738L59.85 56.14zm-46.234-.465A38.952 38.952 0 0 0 13.821 62h6.465a26.969 26.969 0 0 1 1.807-3.727l-8.477-2.598zM9.341 49.908c-.825.688-1.933 1.506-3.076 2.044l-.598-9.25a101.06 101.06 0 0 1 3.188-2.196l.486 9.402zm2.702-4.341l4.11-9.616s-1.978 1.153-4.551 2.78l.441 6.836zm-8.69 6.81c-1.61-.599-2.756-2.834-3.27-3.73-.432-.754.86-2.21 2.876-3.874l.394 7.605zM80.652 27.966c-.663-.555-1.425-1.178-2.282-1.898l-.536-.451-13.422 14.977a27.71 27.71 0 0 0 4.359.345l11.881-12.973zm2.049 1.862c1.868 2 1.5 3.358-1.526 6.963-1.665 1.985-4.686 3.254-8.132 3.815l9.658-10.778zm-6.978-5.998a112.235 112.235 0 0 0-2.877-2.352L57.733 38.342c.994.59 2.128 1.08 3.352 1.47L75.723 23.83zm-5.063-3.995c-4.57-3.258-9.265-5.354-12.078-2.002a26.245 26.245 0 0 0-2.104 2.897 5.06 5.06 0 1 1-3.255 9.422c-.068 2.33.553 4.54 2.187 6.333l15.25-16.65zM57.651 13.697c-.407 1.621-.932 2.946-1.566 3.635l-5.051-7.576.029-.016c.75-.434 1.52-1.47 2.268-2.706l4.32 6.663zm.743-4.206c.457-3.888.393-7.9-.251-9.016-.681-1.18-1.872 1.12-3.26 3.75l3.511 5.266zm-5.013 9.043c-2.108.386-4.126-.3-5.057-1.913-.865-1.497-.57-3.407.588-4.979l4.47 6.892z"/><ellipse cx="54.277" cy="25.403" rx="2.369" ry="2.368"/></g></svg>