<svg width="30" height="30" viewBox="0 0 30 30" xmlns="http://www.w3.org/2000/svg"><title>pinterest-square</title><path d="M24.375 0c1.55 0 2.874.55 3.975 1.65C29.45 2.75 30 4.076 30 5.625v18.75c0 1.55-.55 2.874-1.65 3.975-1.1 1.1-2.426 1.65-3.975 1.65h-14.16c1.107-1.589 1.81-2.956 2.11-4.102.116-.442.461-1.803 1.034-4.082.274.508.752.944 1.436 1.309a4.6 4.6 0 0 0 2.197.547c2.357 0 4.28-.96 5.772-2.881 1.49-1.92 2.236-4.352 2.236-7.295a7.714 7.714 0 0 0-.684-3.174 8.807 8.807 0 0 0-1.884-2.715c-.801-.787-1.794-1.419-2.979-1.894C18.268 5.238 16.986 5 15.605 5c-1.354 0-2.62.186-3.798.557-1.179.37-2.175.869-2.989 1.494a10.53 10.53 0 0 0-2.1 2.138 8.826 8.826 0 0 0-1.298 2.5A8.373 8.373 0 0 0 5 14.277c0 1.328.257 2.5.771 3.516.515 1.016 1.273 1.732 2.276 2.148.17.066.322.066.459 0 .137-.065.231-.188.283-.37.13-.574.228-.97.293-1.192.078-.3.007-.573-.215-.82-.65-.808-.976-1.784-.976-2.93 0-1.953.673-3.623 2.021-5.01 1.348-1.387 3.109-2.08 5.283-2.08 1.94 0 3.454.527 4.541 1.582 1.088 1.055 1.631 2.422 1.631 4.102 0 2.187-.44 4.05-1.318 5.586-.88 1.536-2.009 2.304-3.389 2.304-.781 0-1.413-.283-1.894-.85-.482-.566-.632-1.24-.45-2.02.105-.444.277-1.046.518-1.807.24-.762.433-1.426.576-1.993.143-.566.215-1.051.215-1.455 0-.638-.173-1.168-.518-1.592-.345-.423-.836-.634-1.474-.634-.794 0-1.468.368-2.022 1.103-.553.736-.83 1.644-.83 2.725 0 .937.156 1.725.469 2.363L9.336 25.04c-.313 1.302-.358 2.956-.137 4.961H5.625c-1.55 0-2.874-.55-3.975-1.65C.55 27.25 0 25.924 0 24.375V5.625c0-1.55.55-2.874 1.65-3.975C2.75.55 4.076 0 5.625 0h18.75z" fill="#FFF" fill-rule="evenodd"/></svg>