<svg width="30" height="30" viewBox="0 0 30 30" xmlns="http://www.w3.org/2000/svg"><title>twitter-square</title><path d="M25 9.414a8.69 8.69 0 0 1-2.363.664c.885-.52 1.49-1.282 1.816-2.285a8.157 8.157 0 0 1-2.617.996c-.794-.86-1.79-1.289-2.988-1.289-1.133 0-2.1.4-2.9 1.201-.802.801-1.202 1.768-1.202 2.9 0 .378.033.69.098.938a11.612 11.612 0 0 1-4.727-1.27 11.627 11.627 0 0 1-3.75-3.027 4.062 4.062 0 0 0-.566 2.07c0 1.485.592 2.624 1.777 3.418-.612-.013-1.263-.182-1.953-.507v.039c0 .976.326 1.845.977 2.607.65.762 1.451 1.234 2.402 1.416a3.81 3.81 0 0 1-.996.156c-.17 0-.423-.026-.762-.078a4.17 4.17 0 0 0 1.455 2.032 3.897 3.897 0 0 0 2.373.82c-1.51 1.172-3.21 1.758-5.097 1.758-.339 0-.665-.02-.977-.059 1.927 1.224 4.023 1.836 6.29 1.836 1.457 0 2.825-.231 4.1-.693 1.277-.463 2.37-1.081 3.282-1.856a12.318 12.318 0 0 0 2.353-2.676 11.792 11.792 0 0 0 1.465-3.164c.32-1.1.479-2.197.479-3.29 0-.235-.007-.41-.02-.528A7.972 7.972 0 0 0 25 9.414zm5-3.789v18.75c0 1.55-.55 2.874-1.65 3.975-1.1 1.1-2.426 1.65-3.975 1.65H5.625c-1.55 0-2.874-.55-3.975-1.65C.55 27.25 0 25.924 0 24.375V5.625c0-1.55.55-2.874 1.65-3.975C2.75.55 4.076 0 5.625 0h18.75c1.55 0 2.874.55 3.975 1.65C29.45 2.75 30 4.076 30 5.625z" fill="#FFF" fill-rule="evenodd"/></svg>