<svg width="30" height="30" viewBox="0 0 30 30" xmlns="http://www.w3.org/2000/svg"><title>youtube-square</title><path d="M17.95 22.95v-3.067c0-.651-.19-.977-.567-.977-.222 0-.436.104-.645.313v4.375c.209.208.423.312.645.312.377 0 .566-.319.566-.957zm3.593-2.384h1.289v-.664c0-.664-.215-.996-.645-.996-.43 0-.644.332-.644.996v.664zm-11.152-5.195v1.367H8.828V25H7.383v-8.262H5.859v-1.367h4.532zm3.925 2.461V25h-1.308v-.781c-.508.586-1.003.879-1.485.879-.43 0-.703-.183-.82-.547-.078-.209-.117-.56-.117-1.055v-5.664h1.289v5.273c0 .313.007.482.02.508.013.196.11.293.293.293.26 0 .533-.202.82-.605v-5.469h1.308zM19.238 20v2.852c0 .677-.045 1.152-.136 1.425-.157.547-.502.82-1.036.82-.455 0-.898-.266-1.328-.8V25H15.43v-9.629h1.308v3.145c.417-.521.86-.782 1.328-.782.534 0 .88.274 1.036.82.09.274.136.756.136 1.446zm4.903 2.52v.175c0 .378-.013.658-.04.84-.038.287-.136.547-.292.781-.352.521-.873.782-1.563.782-.677 0-1.204-.248-1.582-.743-.273-.351-.41-.911-.41-1.68v-2.519c0-.768.13-1.328.39-1.68.378-.494.899-.742 1.563-.742.664 0 1.172.248 1.523.743.274.364.41.924.41 1.68v1.484h-2.597v1.27c0 .663.221.995.664.995.313 0 .508-.169.586-.508a4.108 4.108 0 0 0 .02-.459v-.42h1.328zM15.332 6.426v3.047c0 .664-.208.996-.625.996-.417 0-.625-.332-.625-.996V6.426c0-.677.208-1.016.625-1.016.417 0 .625.339.625 1.016zm10.41 13.926c0-2.305-.124-3.998-.37-5.079a2.672 2.672 0 0 0-.84-1.435 2.637 2.637 0 0 0-1.485-.674c-1.771-.195-4.453-.293-8.047-.293-3.58 0-6.257.098-8.027.293a2.607 2.607 0 0 0-1.494.674c-.424.384-.7.863-.83 1.435-.261 1.133-.391 2.826-.391 5.079 0 2.291.13 3.984.39 5.078.13.56.407 1.035.83 1.425.424.391.915.619 1.475.684 1.784.195 4.466.293 8.047.293 3.58 0 6.263-.098 8.047-.293a2.562 2.562 0 0 0 1.474-.684c.424-.39.7-.865.83-1.425.261-1.094.391-2.787.391-5.078zM10.996 7.637l1.758-5.782h-1.465l-.996 3.81-1.035-3.81H7.734l.47 1.348.448 1.348c.456 1.34.756 2.37.899 3.086v3.926h1.445V7.636zm5.645 1.582v-2.54c0-.755-.137-1.32-.41-1.699-.378-.494-.886-.742-1.524-.742-.664 0-1.172.248-1.523.742-.274.378-.41.944-.41 1.7v2.539c0 .755.136 1.321.41 1.699.351.495.859.742 1.523.742.638 0 1.146-.247 1.523-.742.274-.352.41-.918.41-1.7zm3.535 2.344h1.308V4.335h-1.308v5.527c-.287.404-.56.606-.82.606-.196 0-.3-.104-.313-.313-.013-.026-.02-.195-.02-.508V4.336h-1.308v5.723c0 .481.039.84.117 1.074.143.351.423.527.84.527.469 0 .97-.293 1.504-.879v.781zM30 5.625v18.75c0 1.55-.55 2.874-1.65 3.975-1.1 1.1-2.426 1.65-3.975 1.65H5.625c-1.55 0-2.874-.55-3.975-1.65C.55 27.25 0 25.924 0 24.375V5.625c0-1.55.55-2.874 1.65-3.975C2.75.55 4.076 0 5.625 0h18.75c1.55 0 2.874.55 3.975 1.65C29.45 2.75 30 4.076 30 5.625z" fill="#FFF" fill-rule="evenodd"/></svg>